<mxfile host="Electron" modified="2023-11-23T12:33:54.345Z" agent="Mozilla/5.0 (Windows NT 10.0; Win64; x64) AppleWebKit/537.36 (KHTML, like Gecko) draw.io/21.6.5 Chrome/114.0.5735.243 Electron/25.3.1 Safari/537.36" etag="SIG2iOfhvnNrxBNKasZJ" version="21.6.5" type="device">
  <diagram name="Page-1" id="w0eZQ-H4_OWyzMZTPX7a">
    <mxGraphModel dx="1036" dy="606" grid="1" gridSize="10" guides="1" tooltips="1" connect="1" arrows="1" fold="1" page="1" pageScale="1" pageWidth="850" pageHeight="1100" math="0" shadow="0">
      <root>
        <mxCell id="0" />
        <mxCell id="1" parent="0" />
        <mxCell id="YtzRu5mwZU9E4B7OV-cX-4" style="edgeStyle=orthogonalEdgeStyle;rounded=0;orthogonalLoop=1;jettySize=auto;html=1;exitX=1;exitY=0.5;exitDx=0;exitDy=0;entryX=0;entryY=0.5;entryDx=0;entryDy=0;" edge="1" parent="1" source="YtzRu5mwZU9E4B7OV-cX-1" target="YtzRu5mwZU9E4B7OV-cX-3">
          <mxGeometry relative="1" as="geometry" />
        </mxCell>
        <mxCell id="YtzRu5mwZU9E4B7OV-cX-5" value="http/rest" style="edgeLabel;html=1;align=center;verticalAlign=middle;resizable=0;points=[];" vertex="1" connectable="0" parent="YtzRu5mwZU9E4B7OV-cX-4">
          <mxGeometry x="-0.1558" y="-1" relative="1" as="geometry">
            <mxPoint as="offset" />
          </mxGeometry>
        </mxCell>
        <mxCell id="YtzRu5mwZU9E4B7OV-cX-6" style="edgeStyle=orthogonalEdgeStyle;rounded=0;orthogonalLoop=1;jettySize=auto;html=1;exitX=1;exitY=0.75;exitDx=0;exitDy=0;entryX=0;entryY=0.5;entryDx=0;entryDy=0;" edge="1" parent="1" source="YtzRu5mwZU9E4B7OV-cX-1" target="YtzRu5mwZU9E4B7OV-cX-2">
          <mxGeometry relative="1" as="geometry" />
        </mxCell>
        <mxCell id="YtzRu5mwZU9E4B7OV-cX-7" value="http/rest" style="edgeLabel;html=1;align=center;verticalAlign=middle;resizable=0;points=[];" vertex="1" connectable="0" parent="YtzRu5mwZU9E4B7OV-cX-6">
          <mxGeometry x="0.1222" y="-1" relative="1" as="geometry">
            <mxPoint as="offset" />
          </mxGeometry>
        </mxCell>
        <mxCell id="YtzRu5mwZU9E4B7OV-cX-1" value="Client&lt;br&gt;(console app)" style="rounded=0;whiteSpace=wrap;html=1;" vertex="1" parent="1">
          <mxGeometry x="150" y="200" width="120" height="60" as="geometry" />
        </mxCell>
        <mxCell id="YtzRu5mwZU9E4B7OV-cX-11" style="edgeStyle=orthogonalEdgeStyle;rounded=0;orthogonalLoop=1;jettySize=auto;html=1;exitX=0.5;exitY=1;exitDx=0;exitDy=0;" edge="1" parent="1" source="YtzRu5mwZU9E4B7OV-cX-2" target="YtzRu5mwZU9E4B7OV-cX-10">
          <mxGeometry relative="1" as="geometry" />
        </mxCell>
        <mxCell id="YtzRu5mwZU9E4B7OV-cX-2" value="ServiceB&lt;br&gt;(web app)" style="rounded=0;whiteSpace=wrap;html=1;" vertex="1" parent="1">
          <mxGeometry x="400" y="270" width="120" height="60" as="geometry" />
        </mxCell>
        <mxCell id="YtzRu5mwZU9E4B7OV-cX-8" style="edgeStyle=orthogonalEdgeStyle;rounded=0;orthogonalLoop=1;jettySize=auto;html=1;exitX=1;exitY=0.5;exitDx=0;exitDy=0;entryX=1;entryY=0.5;entryDx=0;entryDy=0;" edge="1" parent="1" source="YtzRu5mwZU9E4B7OV-cX-3" target="YtzRu5mwZU9E4B7OV-cX-2">
          <mxGeometry relative="1" as="geometry" />
        </mxCell>
        <mxCell id="YtzRu5mwZU9E4B7OV-cX-9" value="http/rest" style="edgeLabel;html=1;align=center;verticalAlign=middle;resizable=0;points=[];" vertex="1" connectable="0" parent="YtzRu5mwZU9E4B7OV-cX-8">
          <mxGeometry x="0.2682" y="1" relative="1" as="geometry">
            <mxPoint as="offset" />
          </mxGeometry>
        </mxCell>
        <mxCell id="YtzRu5mwZU9E4B7OV-cX-3" value="ServiceA&lt;br&gt;(web app)" style="rounded=0;whiteSpace=wrap;html=1;" vertex="1" parent="1">
          <mxGeometry x="400" y="140" width="120" height="60" as="geometry" />
        </mxCell>
        <mxCell id="YtzRu5mwZU9E4B7OV-cX-10" value="DB" style="shape=cylinder3;whiteSpace=wrap;html=1;boundedLbl=1;backgroundOutline=1;size=15;" vertex="1" parent="1">
          <mxGeometry x="430" y="390" width="60" height="80" as="geometry" />
        </mxCell>
      </root>
    </mxGraphModel>
  </diagram>
</mxfile>
